<svg width="17" height="16" viewBox="0 0 17 16" fill="none" xmlns="http://www.w3.org/2000/svg">
<path d="M8.58 13.8086L8.5 13.8958L8.412 13.8086C4.612 10.0505 2.1 7.56553 2.1 5.04564C2.1 3.30177 3.3 1.99387 4.9 1.99387C6.132 1.99387 7.332 2.8658 7.756 4.05163H9.244C9.668 2.8658 10.868 1.99387 12.1 1.99387C13.7 1.99387 14.9 3.30177 14.9 5.04564C14.9 7.56553 12.388 10.0505 8.58 13.8086ZM12.1 0.25C10.708 0.25 9.372 0.956267 8.5 2.06362C7.628 0.956267 6.292 0.25 4.9 0.25C2.436 0.25 0.5 2.35136 0.5 5.04564C0.5 8.33283 3.22 11.0271 7.34 15.099L8.5 16.25L9.66 15.099C13.78 11.0271 16.5 8.33283 16.5 5.04564C16.5 2.35136 14.564 0.25 12.1 0.25Z" fill="#C10D0D"/>
</svg>
